<svg width="24" height="23" viewBox="0 0 24 23" fill="none" xmlns="http://www.w3.org/2000/svg">
<path id="Vector" d="M12 19.0342L6.46665 22.3676C6.2222 22.5231 5.96665 22.5898 5.69998 22.5676C5.43331 22.5454 5.19998 22.4565 4.99998 22.3009C4.79998 22.1454 4.64442 21.9509 4.53331 21.7176C4.4222 21.4842 4.39998 21.2231 4.46665 20.9342L5.93331 14.6342L1.03331 10.4009C0.81109 10.2009 0.672202 9.97313 0.616646 9.71758C0.56109 9.46202 0.577757 9.21202 0.666646 8.96758C0.755535 8.72313 0.888868 8.52313 1.06665 8.36758C1.24442 8.21202 1.48887 8.11202 1.79998 8.06758L8.26665 7.50091L10.7666 1.56758C10.8778 1.30091 11.05 1.10091 11.2833 0.967578C11.5166 0.834245 11.7555 0.767578 12 0.767578C12.2444 0.767578 12.4833 0.834245 12.7166 0.967578C12.95 1.10091 13.1222 1.30091 13.2333 1.56758L15.7333 7.50091L22.2 8.06758C22.5111 8.11202 22.7555 8.21202 22.9333 8.36758C23.1111 8.52313 23.2444 8.72313 23.3333 8.96758C23.4222 9.21202 23.4389 9.46202 23.3833 9.71758C23.3278 9.97313 23.1889 10.2009 22.9666 10.4009L18.0666 14.6342L19.5333 20.9342C19.6 21.2231 19.5778 21.4842 19.4666 21.7176C19.3555 21.9509 19.2 22.1454 19 22.3009C18.8 22.4565 18.5666 22.5454 18.3 22.5676C18.0333 22.5898 17.7778 22.5231 17.5333 22.3676L12 19.0342Z" fill="#CFDBEA"/>
</svg>
