<svg width="20" height="20" viewBox="0 0 20 20" fill="none" xmlns="http://www.w3.org/2000/svg">
<g id="icon">
<path id="Vector" d="M9.16699 15.0001C10.7781 15.0001 12.1531 14.4341 13.292 13.3022C14.4309 12.1702 15.0003 10.7917 15.0003 9.16675C15.0003 7.55564 14.4309 6.18064 13.292 5.04175C12.1531 3.90286 10.7781 3.33341 9.16699 3.33341C7.54199 3.33341 6.16352 3.90286 5.03158 5.04175C3.89963 6.18064 3.33366 7.55564 3.33366 9.16675C3.33366 10.7917 3.89963 12.1702 5.03158 13.3022C6.16352 14.4341 7.54199 15.0001 9.16699 15.0001ZM9.16699 16.6667C8.12533 16.6667 7.14963 16.4688 6.23991 16.073C5.33019 15.6772 4.53852 15.1424 3.86491 14.4688C3.1913 13.7952 2.65658 13.0036 2.26074 12.0938C1.86491 11.1841 1.66699 10.2084 1.66699 9.16675C1.66699 8.13897 1.86491 7.17022 2.26074 6.2605C2.65658 5.35078 3.1913 4.55564 3.86491 3.87508C4.53852 3.19453 5.33019 2.65633 6.23991 2.2605C7.14963 1.86466 8.12533 1.66675 9.16699 1.66675C10.1948 1.66675 11.1635 1.86466 12.0732 2.2605C12.983 2.65633 13.7781 3.19453 14.4587 3.87508C15.1392 4.55564 15.6774 5.35078 16.0732 6.2605C16.4691 7.17022 16.667 8.13897 16.667 9.16675C16.667 10.0556 16.5212 10.8959 16.2295 11.6876C15.9378 12.4792 15.5351 13.2015 15.0212 13.8542L17.7503 16.5834C17.917 16.7501 17.9969 16.9445 17.9899 17.1667C17.983 17.389 17.8962 17.5834 17.7295 17.7501C17.5628 17.9029 17.3684 17.9792 17.1462 17.9792C16.9239 17.9792 16.7295 17.9029 16.5628 17.7501L13.8337 15.0417C13.1809 15.5556 12.4587 15.9549 11.667 16.2397C10.8753 16.5244 10.042 16.6667 9.16699 16.6667Z" fill="#9FACBD"/>
</g>
</svg>
