<svg width="30" height="30" viewBox="0 0 30 30" fill="none" xmlns="http://www.w3.org/2000/svg">
<path d="M15 11.312C15.1667 11.312 15.3229 11.3381 15.4688 11.3901C15.6146 11.4422 15.75 11.5308 15.875 11.6558L21.625 17.4058C21.8542 17.6349 21.9688 17.9266 21.9688 18.2808C21.9688 18.6349 21.8542 18.9266 21.625 19.1558C21.3958 19.3849 21.1042 19.4995 20.75 19.4995C20.3958 19.4995 20.1042 19.3849 19.875 19.1558L15 14.2808L10.125 19.1558C9.89583 19.3849 9.60417 19.4995 9.25 19.4995C8.89583 19.4995 8.60417 19.3849 8.375 19.1558C8.14583 18.9266 8.03125 18.6349 8.03125 18.2808C8.03125 17.9266 8.14583 17.6349 8.375 17.4058L14.125 11.6558C14.25 11.5308 14.3854 11.4422 14.5313 11.3901C14.6771 11.3381 14.8333 11.312 15 11.312Z" fill="#CFDBEA"/>
</svg>
