<svg width="30" height="30" viewBox="0 0 30 30" fill="none" xmlns="http://www.w3.org/2000/svg">
<path d="M15 18.688C14.8333 18.688 14.6771 18.6619 14.5312 18.6099C14.3854 18.5578 14.25 18.4692 14.125 18.3442L8.375 12.5942C8.14583 12.3651 8.03125 12.0734 8.03125 11.7192C8.03125 11.3651 8.14583 11.0734 8.375 10.8442C8.60417 10.6151 8.89583 10.5005 9.25 10.5005C9.60417 10.5005 9.89583 10.6151 10.125 10.8442L15 15.7192L19.875 10.8442C20.1042 10.6151 20.3958 10.5005 20.75 10.5005C21.1042 10.5005 21.3958 10.6151 21.625 10.8442C21.8542 11.0734 21.9688 11.3651 21.9688 11.7192C21.9688 12.0734 21.8542 12.3651 21.625 12.5942L15.875 18.3442C15.75 18.4692 15.6146 18.5578 15.4688 18.6099C15.3229 18.6619 15.1667 18.688 15 18.688Z" fill="#CFDBEA"/>
</svg>
