<svg width="52" height="15" viewBox="0 0 52 15" fill="none" xmlns="http://www.w3.org/2000/svg">
<path d="M16.3039 10.564C16.3039 11.1761 16.1867 11.7538 15.9524 12.2971C15.725 12.8336 15.4079 13.3047 15.0013 13.7105C14.6015 14.1094 14.1294 14.4257 13.585 14.6596C13.0474 14.8865 12.4719 15 11.8585 15C11.3071 15 10.7764 14.9037 10.2664 14.7111C9.76327 14.5186 9.30839 14.2366 8.90175 13.8652C8.49512 14.2366 8.03679 14.5186 7.52677 14.7111C7.01675 14.9037 6.48606 15 5.93469 15C5.32129 15 4.74235 14.8865 4.19787 14.6596C3.66028 14.4257 3.18817 14.1094 2.78153 13.7105C2.38179 13.3047 2.06475 12.8336 1.83042 12.2971C1.60298 11.7538 1.48926 11.1761 1.48926 10.564V0H4.45632V10.564C4.45632 10.7703 4.49423 10.9663 4.57004 11.152C4.64586 11.3308 4.74924 11.489 4.88019 11.6265C5.01803 11.7572 5.17655 11.8604 5.35575 11.936C5.53494 12.0117 5.72792 12.0495 5.93469 12.0495C6.14145 12.0495 6.33443 12.0117 6.51363 11.936C6.69282 11.8604 6.84789 11.7572 6.97885 11.6265C7.11669 11.489 7.22352 11.3308 7.29933 11.152C7.37514 10.9663 7.41305 10.7703 7.41305 10.564V0H10.3801V10.564C10.3801 10.7703 10.418 10.9663 10.4938 11.152C10.5696 11.3308 10.673 11.489 10.804 11.6265C10.9418 11.7572 11.1003 11.8604 11.2795 11.936C11.4587 12.0117 11.6517 12.0495 11.8585 12.0495C12.0652 12.0495 12.2582 12.0117 12.4374 11.936C12.6166 11.8604 12.7717 11.7572 12.9026 11.6265C13.0405 11.489 13.1473 11.3308 13.2231 11.152C13.3058 10.9663 13.3472 10.7703 13.3472 10.564V0H16.3039V10.564Z" fill="white"/>
<path d="M22.4902 0H19.3047V15H22.4902V0Z" fill="white"/>
<path d="M37.3482 14.8972H34.1743L28.4573 5.15854V14.8972H25.4902V0.103516H28.6641L34.3811 9.85248V0.103516H37.3482V14.8972Z" fill="white"/>
<path d="M50.5101 14.8972H40.3477V0.103516H50.5101V3.06431H43.3147V6.02511H48.184V8.98591H43.3147V11.9364H50.5101V14.8972Z" fill="white"/>
</svg>
