<svg width="25" height="24" viewBox="0 0 25 24" fill="none" xmlns="http://www.w3.org/2000/svg">
<g id="icon">
<path id="Vector" d="M12.3932 1.5C14.4503 1.5 16.3529 1.89999 18.101 2.69998C19.8492 3.49996 21.2312 4.58778 22.247 5.96344C23.2629 7.33908 23.7708 8.83955 23.7708 10.4649C23.7708 12.0903 23.2629 13.5929 22.247 14.9728C21.2312 16.3527 19.8513 17.4426 18.1074 18.2426C16.3635 19.0425 14.4588 19.4426 12.3932 19.4426C11.7414 19.4426 11.0683 19.396 10.3742 19.3029C7.36048 21.3938 5.75628 22.452 5.56156 22.4774C5.46847 22.5113 5.37959 22.5071 5.29494 22.4647C5.26105 22.4393 5.23564 22.4055 5.21872 22.3631C5.2018 22.3208 5.19331 22.2827 5.19331 22.2488V22.1981C5.24412 21.8679 5.6293 20.4923 6.34887 18.0712C4.71503 17.2585 3.4177 16.1813 2.45687 14.8395C1.49604 13.4977 1.01562 12.0395 1.01562 10.4649C1.01562 8.83955 1.52355 7.33908 2.53941 5.96344C3.55527 4.58778 4.93725 3.49996 6.68539 2.69998C8.4335 1.89999 10.3361 1.5 12.3932 1.5ZM6.62825 12.8395V8.94112H7.63137C7.76684 8.94112 7.90864 8.89247 8.05677 8.79511C8.20494 8.69775 8.279 8.56444 8.279 8.39512C8.279 8.22581 8.21127 8.08402 8.07584 7.96973C7.94037 7.85545 7.80917 7.79831 7.68219 7.79831H4.38065C4.23673 7.79831 4.10129 7.84064 3.9743 7.9253C3.84732 8.00995 3.78383 8.14964 3.78383 8.34431C3.78383 8.53903 3.85156 8.6872 3.987 8.78878C4.12245 8.89036 4.27483 8.94112 4.44414 8.94112H5.44728V12.8395C5.44728 13.0511 5.49809 13.2247 5.59967 13.3601C5.70125 13.4955 5.84516 13.5633 6.03139 13.5633C6.21767 13.5633 6.36369 13.4871 6.46948 13.3347C6.57533 13.1823 6.62825 13.0173 6.62825 12.8395ZM12.1265 13.5633C12.4398 13.4448 12.5371 13.1443 12.4186 12.6617C12.3847 12.5517 12.1456 11.8935 11.7012 10.6871C11.2567 9.4808 11.0007 8.793 10.9329 8.62369C10.7044 8.07342 10.3911 7.79831 9.99327 7.79831C9.5615 7.79831 9.22714 8.07342 8.99009 8.62369C8.92236 8.76759 8.66417 9.46814 8.21548 10.7252C7.76684 11.9824 7.53402 12.6278 7.51709 12.6617C7.45784 12.7379 7.44303 12.8776 7.47266 13.0807C7.50228 13.284 7.59331 13.4236 7.74566 13.4998C7.91497 13.576 8.08006 13.5845 8.24089 13.5252C8.40177 13.4659 8.51178 13.377 8.57103 13.2585L8.87581 12.4205H11.0853C11.1784 12.7252 11.2461 12.9241 11.2885 13.0173C11.3308 13.1019 11.3773 13.1866 11.4282 13.2712C11.4789 13.3559 11.5721 13.4384 11.7075 13.5188C11.843 13.5993 11.9826 13.6141 12.1265 13.5633ZM15.5424 13.5633C15.7201 13.5633 15.8831 13.5083 16.0312 13.3982C16.1794 13.2882 16.2535 13.14 16.2535 12.9538C16.2535 12.7675 16.1857 12.6215 16.0503 12.5157C15.9148 12.4099 15.7455 12.357 15.5424 12.357H14.1328V8.52211C14.1328 8.34431 14.08 8.17927 13.9741 8.02688C13.8683 7.87448 13.7223 7.79831 13.536 7.79831C13.3498 7.79831 13.2059 7.86605 13.1043 8.00147C13.0027 8.13694 12.9519 8.31047 12.9519 8.52211V12.8395C12.9519 13.0511 13.0027 13.2247 13.1043 13.3601C13.2059 13.4955 13.3498 13.5633 13.536 13.5633C13.5445 13.5633 13.5593 13.5612 13.5805 13.557C13.6017 13.5527 13.6165 13.5506 13.625 13.5506C13.6334 13.5506 13.6482 13.5527 13.6694 13.557C13.6905 13.5612 13.7053 13.5633 13.7138 13.5633H15.5424ZM20.5454 13.4744C20.6894 13.3389 20.7613 13.1844 20.7613 13.0109C20.7613 12.8374 20.7063 12.6829 20.5962 12.5475C20.5454 12.4712 20.0121 11.7559 18.9963 10.4014C19.4873 9.90197 19.9825 9.40252 20.482 8.90306C20.609 8.77608 20.6872 8.6258 20.7169 8.45227C20.7465 8.27873 20.6978 8.11575 20.5708 7.96341C20.4269 7.82794 20.2724 7.77291 20.1073 7.79831C19.9423 7.82372 19.7878 7.90837 19.6439 8.05228C19.6185 8.07769 19.5084 8.18981 19.3137 8.38875C19.119 8.58773 18.8672 8.84381 18.5582 9.15703C18.2492 9.47025 17.9762 9.74958 17.7392 9.99511V8.52211C17.7392 8.34431 17.6862 8.17927 17.5804 8.02688C17.4746 7.87448 17.3286 7.79831 17.1424 7.79831C16.9561 7.79831 16.8122 7.86605 16.7106 8.00147C16.609 8.13694 16.5582 8.31047 16.5582 8.52211V12.8395C16.5582 13.0511 16.609 13.2247 16.7106 13.3601C16.8122 13.4955 16.9561 13.5633 17.1424 13.5633C17.3286 13.5633 17.4746 13.4871 17.5804 13.3347C17.6862 13.1823 17.7392 13.0173 17.7392 12.8395V11.684C17.773 11.6501 17.8365 11.5845 17.9296 11.4871C18.0228 11.3898 18.0989 11.3115 18.1582 11.2522C18.7169 12.0141 19.2164 12.6871 19.6566 13.2712C19.7751 13.4321 19.9127 13.5358 20.0693 13.5824C20.2259 13.6289 20.3846 13.5929 20.5454 13.4744ZM9.21866 11.2776L9.99327 9.00464L10.7551 11.2776H9.21866Z" fill="black"/>
</g>
</svg>
