<svg width="26" height="26" viewBox="0 0 26 26" fill="none" xmlns="http://www.w3.org/2000/svg">
<g id="icon">
<path id="Vector" d="M13 22.75C12.6931 22.75 12.4358 22.6462 12.2281 22.4385C12.0205 22.2309 11.9167 21.9736 11.9167 21.6667V17.3333C11.9167 17.0264 12.0205 16.7691 12.2281 16.5615C12.4358 16.3538 12.6931 16.25 13 16.25C13.3069 16.25 13.5642 16.3538 13.7719 16.5615C13.9795 16.7691 14.0833 17.0264 14.0833 17.3333V18.4167H21.6667C21.9736 18.4167 22.2309 18.5205 22.4385 18.7281C22.6462 18.9358 22.75 19.1931 22.75 19.5C22.75 19.8069 22.6462 20.0642 22.4385 20.2719C22.2309 20.4795 21.9736 20.5833 21.6667 20.5833H14.0833V21.6667C14.0833 21.9736 13.9795 22.2309 13.7719 22.4385C13.5642 22.6462 13.3069 22.75 13 22.75ZM4.33333 20.5833C4.02639 20.5833 3.7691 20.4795 3.56146 20.2719C3.35382 20.0642 3.25 19.8069 3.25 19.5C3.25 19.1931 3.35382 18.9358 3.56146 18.7281C3.7691 18.5205 4.02639 18.4167 4.33333 18.4167H8.66667C8.97361 18.4167 9.2309 18.5205 9.43854 18.7281C9.64618 18.9358 9.75 19.1931 9.75 19.5C9.75 19.8069 9.64618 20.0642 9.43854 20.2719C9.2309 20.4795 8.97361 20.5833 8.66667 20.5833H4.33333ZM8.66667 16.25C8.35972 16.25 8.10243 16.1462 7.89479 15.9385C7.68715 15.7309 7.58333 15.4736 7.58333 15.1667V14.0833H4.33333C4.02639 14.0833 3.7691 13.9795 3.56146 13.7719C3.35382 13.5642 3.25 13.3069 3.25 13C3.25 12.6931 3.35382 12.4358 3.56146 12.2281C3.7691 12.0205 4.02639 11.9167 4.33333 11.9167H7.58333V10.8333C7.58333 10.5264 7.68715 10.2691 7.89479 10.0615C8.10243 9.85382 8.35972 9.75 8.66667 9.75C8.97361 9.75 9.2309 9.85382 9.43854 10.0615C9.64618 10.2691 9.75 10.5264 9.75 10.8333V15.1667C9.75 15.4736 9.64618 15.7309 9.43854 15.9385C9.2309 16.1462 8.97361 16.25 8.66667 16.25ZM13 14.0833C12.6931 14.0833 12.4358 13.9795 12.2281 13.7719C12.0205 13.5642 11.9167 13.3069 11.9167 13C11.9167 12.6931 12.0205 12.4358 12.2281 12.2281C12.4358 12.0205 12.6931 11.9167 13 11.9167H21.6667C21.9736 11.9167 22.2309 12.0205 22.4385 12.2281C22.6462 12.4358 22.75 12.6931 22.75 13C22.75 13.3069 22.6462 13.5642 22.4385 13.7719C22.2309 13.9795 21.9736 14.0833 21.6667 14.0833H13ZM17.3333 9.75C17.0264 9.75 16.7691 9.64618 16.5615 9.43854C16.3538 9.2309 16.25 8.97361 16.25 8.66667V4.33333C16.25 4.02639 16.3538 3.7691 16.5615 3.56146C16.7691 3.35382 17.0264 3.25 17.3333 3.25C17.6403 3.25 17.8976 3.35382 18.1052 3.56146C18.3128 3.7691 18.4167 4.02639 18.4167 4.33333V5.41667H21.6667C21.9736 5.41667 22.2309 5.52049 22.4385 5.72813C22.6462 5.93576 22.75 6.19306 22.75 6.5C22.75 6.80694 22.6462 7.06424 22.4385 7.27187C22.2309 7.47951 21.9736 7.58333 21.6667 7.58333H18.4167V8.66667C18.4167 8.97361 18.3128 9.2309 18.1052 9.43854C17.8976 9.64618 17.6403 9.75 17.3333 9.75ZM4.33333 7.58333C4.02639 7.58333 3.7691 7.47951 3.56146 7.27187C3.35382 7.06424 3.25 6.80694 3.25 6.5C3.25 6.19306 3.35382 5.93576 3.56146 5.72813C3.7691 5.52049 4.02639 5.41667 4.33333 5.41667H13C13.3069 5.41667 13.5642 5.52049 13.7719 5.72813C13.9795 5.93576 14.0833 6.19306 14.0833 6.5C14.0833 6.80694 13.9795 7.06424 13.7719 7.27187C13.5642 7.47951 13.3069 7.58333 13 7.58333H4.33333Z" fill="#9FACBD"/>
</g>
</svg>
