<svg width="36" height="37" viewBox="0 0 36 37" fill="none" xmlns="http://www.w3.org/2000/svg">
<g id="icon">
<path id="Vector" d="M24.2625 19.9999H7.5C7.075 19.9999 6.71875 19.8562 6.43125 19.5687C6.14375 19.2812 6 18.9249 6 18.4999C6 18.0749 6.14375 17.7187 6.43125 17.4312C6.71875 17.1437 7.075 16.9999 7.5 16.9999H24.2625L16.9125 9.64992C16.6125 9.34992 16.4687 8.99992 16.4812 8.59992C16.4937 8.19992 16.65 7.84992 16.95 7.54992C17.25 7.27492 17.6 7.13117 18 7.11867C18.4 7.10617 18.75 7.24992 19.05 7.54992L28.95 17.4499C29.1 17.5999 29.2062 17.7624 29.2687 17.9374C29.3312 18.1124 29.3625 18.2999 29.3625 18.4999C29.3625 18.6999 29.3312 18.8874 29.2687 19.0624C29.2062 19.2374 29.1 19.3999 28.95 19.5499L19.05 29.4499C18.775 29.7249 18.4312 29.8624 18.0187 29.8624C17.6062 29.8624 17.25 29.7249 16.95 29.4499C16.65 29.1499 16.5 28.7937 16.5 28.3812C16.5 27.9687 16.65 27.6124 16.95 27.3124L24.2625 19.9999Z" fill="#CFDBEA"/>
</g>
</svg>
